<svg width="50" height="30" viewBox="0 0 50 30" fill="none" xmlns="http://www.w3.org/2000/svg">
<path d="M49.3745 14.6477C49.3745 22.6133 42.8978 29.1645 34.8577 29.1645C26.8921 29.1645 20.3409 22.6133 20.3409 14.6477C20.3409 6.68203 26.8177 0.130859 34.7833 0.130859C42.8978 0.130859 49.3745 6.68203 49.3745 14.6477Z" fill="#F9B50B"/>
<path d="M29.9441 14.7223C29.9441 13.6801 29.7952 12.6379 29.6463 11.6701H20.7129C20.7873 11.149 20.9362 10.7023 21.0851 10.1068H29.0507C28.9018 9.58563 28.6785 9.06452 28.4552 8.5434H21.6807C21.904 8.02229 22.2018 7.57562 22.4996 6.98006H27.6363C27.3385 6.45894 26.9663 5.93782 26.5196 5.41671H23.6907C24.1374 4.89559 24.584 4.44892 25.1796 3.9278C22.6485 1.54556 19.224 0.131104 15.4273 0.131104C7.53609 0.354439 0.984924 6.68227 0.984924 14.6479C0.984924 22.6135 7.46165 29.1647 15.5017 29.1647C19.2984 29.1647 22.6485 27.6758 25.254 25.368C25.7751 24.9213 26.2218 24.4002 26.7429 23.8047H23.7651C23.3929 23.358 23.0207 22.8369 22.7229 22.3158H27.7852C28.0829 21.8691 28.3807 21.348 28.6041 20.7524H21.8296C21.6062 20.3057 21.3829 19.7846 21.234 19.1891H29.1996C29.6463 17.849 29.9441 16.3601 29.9441 14.7223Z" fill="#C8191C"/>
<path d="M20.6386 18.3702L20.862 17.0302C20.7875 17.0302 20.6386 17.1046 20.4897 17.1046C19.9686 17.1046 19.8942 16.8069 19.9686 16.658L20.4153 13.9779H21.2342L21.4575 12.489H20.7131L20.862 11.5957H19.2986C19.2986 11.5957 18.4053 16.658 18.4053 17.2535C18.4053 18.1469 18.9264 18.5935 19.6708 18.5935C20.1175 18.5935 20.4897 18.4447 20.6386 18.3702Z" fill="white"/>
<path d="M21.1595 15.9129C21.1595 18.0718 22.6484 18.5929 23.8396 18.5929C24.9562 18.5929 25.4774 18.3696 25.4774 18.3696L25.7751 16.8807C25.7751 16.8807 24.9562 17.2529 24.1374 17.2529C22.4251 17.2529 22.7229 15.9873 22.7229 15.9873H25.8496C25.8496 15.9873 26.0729 15.0195 26.0729 14.5729C26.0729 13.6051 25.5518 12.3395 23.8396 12.3395C22.3507 12.2651 21.1595 13.9773 21.1595 15.9129ZM23.8396 13.6795C24.6585 13.6795 24.5096 14.6473 24.5096 14.7217H22.7973C22.8718 14.6473 23.0207 13.6795 23.8396 13.6795Z" fill="white"/>
<path d="M33.5921 18.3703L33.8898 16.658C33.8898 16.658 33.1454 17.0303 32.5498 17.0303C31.5076 17.0303 30.9865 16.2114 30.9865 15.2436C30.9865 13.3825 31.8798 12.4147 32.9965 12.4147C33.741 12.4147 34.411 12.8613 34.411 12.8613L34.6343 11.2235C34.6343 11.2235 33.741 10.8513 32.8476 10.8513C31.0609 10.8513 29.3487 12.4147 29.3487 15.318C29.3487 17.2536 30.242 18.5192 32.1032 18.5192C32.7732 18.5936 33.5921 18.3703 33.5921 18.3703Z" fill="white"/>
<path d="M12.2263 12.2651C11.1841 12.2651 10.3652 12.5629 10.3652 12.5629L10.1418 13.9029C10.1418 13.9029 10.8118 13.6051 11.8541 13.6051C12.3752 13.6051 12.8219 13.6796 12.8219 14.1263C12.8219 14.424 12.7474 14.4985 12.7474 14.4985H12.0774C10.7374 14.4985 9.32294 15.0196 9.32294 16.8063C9.32294 18.2207 10.2163 18.5185 10.8118 18.5185C11.8541 18.5185 12.3752 17.8485 12.4496 17.8485L12.3752 18.4441H13.6408L14.2363 14.2007C14.2363 12.3396 12.7474 12.2651 12.2263 12.2651ZM12.5241 15.6896C12.5241 15.9129 12.3752 17.1785 11.4818 17.1785C11.0352 17.1785 10.8863 16.8063 10.8863 16.583C10.8863 16.2107 11.1096 15.6896 12.3007 15.6896C12.4496 15.6896 12.5241 15.6896 12.5241 15.6896Z" fill="white"/>
<path d="M15.7252 18.5188C16.0974 18.5188 18.033 18.5932 18.033 16.5087C18.033 14.5732 16.1719 14.9454 16.1719 14.2009C16.1719 13.8287 16.4697 13.6798 16.9908 13.6798C17.2141 13.6798 18.033 13.7543 18.033 13.7543L18.2563 12.3398C18.2563 12.3398 17.7352 12.1909 16.7674 12.1909C15.6508 12.1909 14.4596 12.6376 14.4596 14.2009C14.4596 15.9876 16.3952 15.8387 16.3952 16.5087C16.3952 16.9554 15.8741 17.0299 15.5019 17.0299C14.8319 17.0299 14.0874 16.8065 14.0874 16.8065L13.8641 18.221C14.013 18.3699 14.4596 18.5188 15.7252 18.5188Z" fill="white"/>
<path d="M46.3966 11.0747L46.0988 13.1592C46.0988 13.1592 45.5033 12.4147 44.6099 12.4147C43.1955 12.4147 42.0043 14.127 42.0043 16.137C42.0043 17.4025 42.5999 18.6681 43.9399 18.6681C44.8333 18.6681 45.4288 18.0725 45.4288 18.0725L45.3544 18.5937H46.9177L48.0344 11.2236L46.3966 11.0747ZM45.6521 15.0947C45.6521 15.9136 45.2799 17.0303 44.3866 17.0303C43.8655 17.0303 43.5677 16.5836 43.5677 15.7648C43.5677 14.4992 44.0888 13.7547 44.8333 13.7547C45.3544 13.8292 45.6521 14.2014 45.6521 15.0947Z" fill="white"/>
<path d="M3.81398 18.4448L4.70732 12.9358L4.85621 18.4448H5.89844L7.90846 12.9358L7.08956 18.4448H8.72735L9.99292 11.0747H7.46179L5.89844 15.6159L5.82399 11.0747H3.59064L2.32507 18.4448H3.81398Z" fill="white"/>
<path d="M27.6364 18.4444C28.083 15.9132 28.1575 13.8288 29.2742 14.201C29.4231 13.2332 29.6464 12.7865 29.7953 12.4143H29.4975C28.8275 12.4143 28.2319 13.3076 28.2319 13.3076L28.3808 12.4888H26.8919L25.9241 18.4444H27.6364Z" fill="white"/>
<path d="M37.1654 12.2651C36.1232 12.2651 35.3043 12.5629 35.3043 12.5629L35.081 13.9029C35.081 13.9029 35.751 13.6051 36.7932 13.6051C37.3143 13.6051 37.761 13.6796 37.761 14.1263C37.761 14.424 37.6866 14.4985 37.6866 14.4985H37.0166C35.6765 14.4985 34.2621 15.0196 34.2621 16.8063C34.2621 18.2207 35.1554 18.5185 35.751 18.5185C36.7932 18.5185 37.3143 17.8485 37.3888 17.8485L37.3143 18.4441H38.7288L39.3244 14.2007C39.3244 12.3396 37.6866 12.2651 37.1654 12.2651ZM37.5377 15.6896C37.5377 15.9129 37.3888 17.1785 36.4954 17.1785C36.0488 17.1785 35.8999 16.8063 35.8999 16.583C35.8999 16.2107 36.1232 15.6896 37.3143 15.6896C37.4632 15.6896 37.4632 15.6896 37.5377 15.6896Z" fill="white"/>
<path d="M40.515 18.4444C40.9616 15.9132 41.0361 13.8288 42.1528 14.201C42.3017 13.2332 42.525 12.7865 42.6739 12.4143H42.3761C41.7061 12.4143 41.1105 13.3076 41.1105 13.3076L41.2594 12.4888H39.7705L38.8027 18.4444H40.515Z" fill="white"/>
</svg>
