<svg width="51" height="17" viewBox="0 0 51 17" fill="none" xmlns="http://www.w3.org/2000/svg">
<path d="M47.4959 1.05493H44.2947C43.3269 1.05493 42.5825 1.35271 42.1358 2.3205L36.0313 16.2417H40.3491C40.3491 16.2417 41.0936 14.3806 41.2425 13.9339C41.6891 13.9339 45.9325 13.9339 46.5281 13.9339C46.677 14.4551 47.0492 16.1673 47.0492 16.1673H50.9203L47.4959 1.05493ZM42.4336 10.8072C42.8058 9.9139 44.0714 6.56387 44.0714 6.56387C44.0714 6.63832 44.4436 5.67053 44.5925 5.14941L44.8903 6.48943C44.8903 6.48943 45.7092 10.1372 45.8581 10.8817H42.4336V10.8072Z" fill="#3362AB"/>
<path d="M36.3291 11.2539C36.3291 14.3806 33.5002 16.465 29.1079 16.465C27.2468 16.465 25.4601 16.0928 24.4923 15.6461L25.0879 12.2216L25.609 12.445C26.949 13.0405 27.8423 13.2639 29.4801 13.2639C30.6713 13.2639 31.9368 12.8172 31.9368 11.775C31.9368 11.105 31.4157 10.6583 29.7779 9.91385C28.2146 9.1694 26.1301 7.97828 26.1301 5.81937C26.1301 2.84156 29.0335 0.831543 33.1279 0.831543C34.6913 0.831543 36.0313 1.12932 36.8502 1.50155L36.2546 4.77713L35.9569 4.47935C35.2124 4.18157 34.2446 3.88379 32.8302 3.88379C31.2668 3.95824 30.5224 4.62824 30.5224 5.22381C30.5224 5.89381 31.4157 6.41493 32.8302 7.08493C35.2124 8.20161 36.3291 9.46718 36.3291 11.2539Z" fill="#3362AB"/>
<path d="M0 1.20354L0.0744451 0.905762H6.47673C7.37007 0.905762 8.04007 1.20354 8.26341 2.17133L9.67787 8.87139C8.26341 5.29802 4.98782 2.39466 0 1.20354Z" fill="#F9B50B"/>
<path d="M18.6855 1.05516L12.2088 16.1675H7.81656L4.0943 3.51185C6.77432 5.22408 9.00768 7.90411 9.82657 9.76524L10.2732 11.3286L14.2933 0.980713H18.6855V1.05516Z" fill="#3362AB"/>
<path d="M20.3981 0.980713H24.4925L21.887 16.1675H17.7925L20.3981 0.980713Z" fill="#3362AB"/>
</svg>
