<?xml version="1.0" encoding="utf-8"?>
<!-- Generator: Adobe Illustrator 24.1.2, SVG Export Plug-In . SVG Version: 6.00 Build 0)  -->
<svg version="1.1" id="Layer_1" xmlns="http://www.w3.org/2000/svg" xmlns:xlink="http://www.w3.org/1999/xlink" x="0px" y="0px"
	 viewBox="0 0 406 202" style="enable-background:new 0 0 406 202;" xml:space="preserve">
<style type="text/css">
	.st0{fill:#fff;}
	.st1{fill:#50AB25;}
	.st2{fill:#F7E616;}
	.st3{fill:#2A69B1;}
	.st4{fill:#0D461A;}
</style>
<g>
	<g>
		<g>
			<path class="st0" d="M153.91,133.79V67.81c0-4.05,3.01-7.16,7.05-7.16c3.94,0,6.95,3.11,6.95,7.16v65.97
				c0,4.05-3.01,7.16-6.95,7.16C156.91,140.94,153.91,137.83,153.91,133.79z"/>
			<path class="st0" d="M229.94,111.28v0.31c0,4.36-3.11,7.16-7.68,7.16h-29.25c1.66,6.43,6.85,10.17,14.42,10.17
				c3.73,0,7.57-1.04,10.68-3.01c1.04-0.62,1.97-0.93,3.01-0.93c3.22,0,5.71,2.39,5.71,5.6c0,2.28-1.04,3.94-3.53,5.6
				c-4.67,3.11-10.27,4.77-16.29,4.77c-16.18,0-28.11-11.51-28.11-26.87c0-15.25,11.51-26.87,26.66-26.87
				C219.57,87.21,229.94,97.38,229.94,111.28z M193.01,108.89h23.34c-0.21-6.12-4.56-10.37-11.1-10.37
				C199.13,98.52,194.57,102.56,193.01,108.89z"/>
			<path class="st0" d="M274.95,133.99c0,2.59-1.35,4.56-3.53,5.6c-1.97,0.83-4.25,1.35-7.26,1.35c-13.38,0-20.54-6.74-20.54-19.29
				v-21.47h-2.9c-3.42,0-6.02-2.49-6.02-5.91c0-3.42,2.59-5.91,6.02-5.91h2.9V81.3c0-4.05,2.9-7.05,7.05-7.05
				c3.94,0,6.95,3.01,6.95,7.05v7.05h9.44c3.42,0,5.91,2.49,5.91,5.91c0,3.42-2.49,5.91-5.91,5.91h-9.44v20.23
				c0,5.71,2.7,7.99,9.23,7.99c0.83,0,1.45-0.1,1.97-0.1C272.57,128.29,274.95,130.57,274.95,133.99z"/>
			<path class="st0" d="M338.23,113.97c0,15.56-10.48,26.97-24.9,26.97c-6.43,0-11.83-2.28-15.35-6.22v17.84
				c0,4.05-3.01,7.05-6.95,7.05c-4.05,0-7.05-3.01-7.05-7.05v-58.5c0-3.94,3.01-6.95,6.95-6.95c3.73,0,6.53,2.8,6.74,6.64
				c3.53-4.15,9.02-6.53,15.66-6.53C327.75,87.21,338.23,98.42,338.23,113.97z M324.02,114.08c0-8.3-5.5-14.21-13.28-14.21
				s-12.97,5.71-12.97,14.11c0,8.4,5.29,14.21,12.97,14.21C318.42,128.19,324.02,122.27,324.02,114.08z"/>
			<path class="st0" d="M396.94,93.95c0,1.04-0.21,2.07-0.83,3.22l-22.61,46.37c-5.5,11.31-11.72,16.08-21.06,16.08
				c-2.28,0-4.36-0.42-5.91-1.14c-2.18-0.93-3.53-3.11-3.53-5.5c0-3.42,2.8-6.02,6.33-6.02c0.52,0,0.93,0.1,1.24,0.1
				c4.46,0,7.47-1.87,9.75-6.53l1.87-4.15l-17.74-39.11c-0.62-1.24-0.93-2.28-0.93-3.32c0-3.63,3.11-6.74,6.85-6.74
				c2.7,0,5.08,1.45,6.12,3.94l13.59,30.39l13.9-30.39c1.04-2.39,3.42-3.94,6.22-3.94C393.83,87.21,396.94,90.32,396.94,93.95z"/>
		</g>
	</g>
</g>
<path class="st1" d="M56.58,108.71c-27.4,0-49.69-22.29-49.69-49.69S29.18,9.32,56.58,9.32s49.69,22.29,49.69,49.69
	S83.98,108.71,56.58,108.71z M56.58,34.17c-13.7,0-24.85,11.15-24.85,24.85s11.15,24.85,24.85,24.85s24.85-11.15,24.85-24.85
	S70.28,34.17,56.58,34.17z"/>
<path class="st2" d="M6.88,183.25L6.88,183.25c0-6.83,5.59-12.42,12.42-12.42h43.48c6.83,0,12.42,5.59,12.42,12.42v0
	c0,6.83-5.59,12.42-12.42,12.42H19.31C12.47,195.68,6.88,190.09,6.88,183.25z"/>
<path class="st3" d="M19.31,152.2L19.31,152.2c-6.83,0-12.42-5.59-12.42-12.42V21.75c0-6.83,5.59-12.42,12.42-12.42h0
	c6.83,0,12.42,5.59,12.42,12.42v118.02C31.73,146.6,26.14,152.2,19.31,152.2z"/>
<path class="st4" d="M32,15.95C17.25,24.58,7.31,40.58,7.31,58.87S17.25,93.16,32,101.79V15.95z"/>
</svg>
