<svg width="56" height="32" viewBox="0 0 56 32" fill="none" xmlns="http://www.w3.org/2000/svg">
<path d="M25.0499 18.4803L26.494 9.24707H28.7634L27.3192 18.4803H25.0499Z" fill="#074784"/>
<path d="M18.3451 9.24707H21.9554C24.2247 9.24707 24.8436 10.6111 24.5342 12.1849C24.3279 13.5489 23.3995 14.3883 22.1617 14.703L24.431 18.4803H21.4396L19.6861 14.808L19.1703 18.4803H16.7979L18.3451 9.24707ZM20.4081 11.0308L19.9955 13.3391H20.7176C21.3365 13.3391 21.9554 12.8144 22.0585 12.1849C22.1617 11.5554 21.7491 11.0308 21.027 11.0308H20.4081Z" fill="#074784"/>
<path d="M35.6743 18.4803L37.1184 9.24707H39.4909L38.0468 18.4803H35.6743Z" fill="#074784"/>
<path d="M43.3075 11.2406L42.998 12.8144H45.68L45.3705 14.808H42.6886L42.4823 16.4867H45.2673L44.9579 18.4803H39.8004L41.2445 9.24707H46.402L46.0926 11.2406H43.3075Z" fill="#074784"/>
<path d="M13.8066 11.2406L13.6003 12.8144H16.2823L15.9728 14.808H13.2909L12.9814 16.4867H15.7665L15.457 18.4803H10.2995L11.7436 9.24707H16.9012L16.5917 11.2406H13.8066Z" fill="#074784"/>
<path d="M32.5801 11.2406L32.3738 12.8144H34.9526L34.6431 14.808H32.0644L31.4455 18.4803H29.073L30.5171 9.24707H35.7778L35.4684 11.2406H32.5801Z" fill="#074784"/>
<path d="M50.8378 9.24707H47.7432L46.2991 18.4803H49.3937C52.2819 18.4803 54.6544 16.4867 55.067 13.8637C55.2733 12.08 54.4481 9.24707 50.8378 9.24707ZM52.5913 13.7587C52.2819 15.4375 51.1472 16.4867 49.6 16.4867C49.3937 16.4867 49.1874 16.4867 48.9811 16.4867L49.8063 11.2406C50.0126 11.2406 50.1157 11.2406 50.322 11.2406C52.0756 11.2406 52.7976 12.4997 52.5913 13.7587Z" fill="#074784"/>
<path d="M0.809204 7.98877H5.14154L5.6573 14.7038C8.54552 9.66753 11.4337 4.84109 14.4251 0.0146484H15.8692C12.7747 6.10016 9.68018 12.2906 6.6888 18.481H3.49113L2.66592 11.0315C2.45962 9.24784 2.15017 8.40846 0.809204 8.30354V7.98877Z" fill="#074784"/>
<path d="M6.68884 9.98224L10.0928 4.10657V3.89673H2.45966V4.10657L6.17309 5.78534L6.48254 9.98224H6.68884Z" fill="#F09C11"/>
<path d="M20.202 23.6226C19.5831 23.6226 19.0674 23.9374 18.6548 24.3571L19.1705 20.6848H17.6232L16.4886 28.7639H18.0359L18.139 28.1343C18.4485 28.554 18.8611 28.8688 19.48 28.8688C20.7178 28.8688 21.8524 27.7146 22.0587 26.2457C22.265 24.7768 21.4398 23.6226 20.202 23.6226ZM20.4083 26.2457C20.3052 26.8753 19.7894 27.3999 19.2737 27.3999C18.7579 27.3999 18.3453 26.8753 18.4485 26.2457C18.5516 25.6162 19.0674 25.0916 19.5831 25.0916C20.0989 25.0916 20.5115 25.6162 20.4083 26.2457Z" fill="#074784"/>
<path d="M26.3911 23.7268H28.1446L23.5028 31.2812H21.7493L23.7091 28.1336L22.1619 23.7268H23.9154L24.7406 26.3499L26.3911 23.7268Z" fill="#074784"/>
<path d="M38.563 28.7639H36.3968L38.8724 20.6848H41.0386L38.563 28.7639Z" fill="#074784"/>
<path d="M35.4683 20.6848L32.5801 25.9309L32.3738 20.6848H28.6603V20.9996C29.8981 20.9996 30.1045 21.2094 30.3108 22.1537L31.0328 28.7639H33.3021L37.8408 20.6848H35.4683Z" fill="#074784"/>
<path d="M49.6001 27.6097L49.0843 28.7639H46.7119L51.0442 20.6848H53.9324L54.6545 28.7639H53.0041H52.282L52.1788 27.6097H49.6001ZM50.3221 26.0359H52.1788L51.9725 22.2587L50.3221 26.0359Z" fill="#074784"/>
<path d="M43.308 28.9738C41.7607 28.9738 40.7292 28.4492 40.0071 28.0295L41.0386 26.4557C41.6576 26.8754 42.1733 27.2951 43.4111 27.2951C43.8237 27.2951 44.1332 27.1901 44.3395 26.8754C44.6489 26.3508 44.2363 26.036 43.4111 25.6163L42.9985 25.1966C41.7607 24.3572 41.1418 23.5179 41.7607 22.0489C42.1733 21.1046 43.1017 20.4751 44.7521 20.4751C45.8867 20.4751 46.9182 20.9997 47.5372 21.4194L46.2993 22.7834C45.6804 22.2588 45.1647 22.0489 44.6489 22.0489C44.2363 22.0489 43.8237 22.2588 43.7206 22.4686C43.5143 22.8883 43.8237 23.2031 44.4426 23.6228L44.9584 23.9375C46.5056 24.8818 46.8151 25.9311 46.5056 26.8754C45.9899 28.6591 44.6489 28.9738 43.308 28.9738Z" fill="#074784"/>
</svg>
