<svg width="69" height="18" viewBox="0 0 69 18" fill="none" xmlns="http://www.w3.org/2000/svg">
<path opacity="0.5" fill-rule="evenodd" clip-rule="evenodd" d="M16.3359 10.2374L12.9143 6.74134C12.8399 6.66695 12.7655 6.66695 12.6911 6.74134L10.3852 9.04726C10.3108 9.12164 10.3108 9.19601 10.3852 9.2704L11.501 10.3862L13.063 10.5349C13.1374 10.5349 13.2118 10.6093 13.2118 10.6837V12.097L13.8069 12.6921C13.8813 12.7665 13.9556 12.7665 14.03 12.6921L16.3359 10.3862C16.4103 10.3862 16.4103 10.3118 16.3359 10.2374Z" fill="url(#paint0_linear)"/>
<path opacity="0.5" fill-rule="evenodd" clip-rule="evenodd" d="M13.2118 15.7421V10.7584C13.2118 10.684 13.1374 10.6096 13.063 10.6096H9.79012C9.71574 10.6096 9.64136 10.684 9.64136 10.7584V12.3205L10.6827 13.6594C10.7571 13.7337 10.7571 13.8081 10.6827 13.8825L9.64136 14.9239V15.7421C9.64136 15.8165 9.71574 15.8909 9.79012 15.8909H13.063C13.1374 15.8909 13.2118 15.8165 13.2118 15.7421Z" fill="url(#paint1_linear)"/>
<path opacity="0.5" fill-rule="evenodd" clip-rule="evenodd" d="M7.26111 17.3783L10.6828 13.8822C10.7572 13.8078 10.7572 13.7334 10.6828 13.659L8.37687 11.3532C8.30249 11.2788 8.22811 11.2788 8.15373 11.3532L7.03797 12.4689L6.81481 14.1054C6.81481 14.1797 6.74043 14.2541 6.66604 14.2541H5.25273L4.65766 14.8492C4.58327 14.9236 4.58327 14.998 4.65766 15.0724L6.96358 17.3783C7.03796 17.4527 7.18672 17.4527 7.26111 17.3783Z" fill="url(#paint2_linear)"/>
<path opacity="0.5" fill-rule="evenodd" clip-rule="evenodd" d="M1.83091 14.2543H6.6659C6.74028 14.2543 6.81466 14.1799 6.81466 14.1055V10.8326C6.81466 10.7582 6.74028 10.6838 6.6659 10.6838H5.02943L3.83929 11.6508C3.7649 11.7252 3.69052 11.7252 3.61613 11.6508L2.64913 10.6838H1.83091C1.75653 10.6838 1.68213 10.7582 1.68213 10.8326V14.1055C1.60775 14.1799 1.68214 14.2543 1.83091 14.2543Z" fill="url(#paint3_linear)"/>
<path opacity="0.5" fill-rule="evenodd" clip-rule="evenodd" d="M3.2442 2.5759V7.55966C3.2442 7.63405 3.31858 7.70842 3.39297 7.70842H6.66589C6.74027 7.70842 6.81465 7.63405 6.81465 7.55966V5.99759L5.77327 4.73304C5.69888 4.65866 5.69888 4.58428 5.77327 4.5099L6.81465 3.46852V2.65029C6.81465 2.57591 6.74027 2.50151 6.66589 2.50151H3.39297C3.31858 2.42713 3.2442 2.50152 3.2442 2.5759Z" fill="url(#paint4_linear)"/>
<path opacity="0.5" fill-rule="evenodd" clip-rule="evenodd" d="M9.26934 0.939089L5.84766 4.43514C5.77327 4.50952 5.77327 4.58392 5.84766 4.65831L8.15358 6.9642C8.22796 7.03859 8.30234 7.03859 8.37672 6.9642L9.49249 5.84844L9.64127 4.212C9.64127 4.13761 9.71565 4.06322 9.79003 4.06322H11.2033L11.7984 3.46815C11.8728 3.39377 11.8728 3.31937 11.7984 3.24499L9.49249 0.939089C9.4181 0.864705 9.34373 0.864705 9.26934 0.939089Z" fill="url(#paint5_linear)"/>
<path opacity="0.5" fill-rule="evenodd" clip-rule="evenodd" d="M14.6995 4.06396H9.86453C9.79014 4.06396 9.71576 4.13836 9.71576 4.21274V7.48565C9.71576 7.56003 9.79014 7.63443 9.86453 7.63443H11.501L12.6911 6.66742C12.7655 6.59303 12.8399 6.59303 12.9143 6.66742L13.8813 7.63443H14.6995C14.7739 7.63443 14.8483 7.56003 14.8483 7.48565V4.21274C14.8483 4.13836 14.7739 4.06396 14.6995 4.06396Z" fill="url(#paint6_linear)"/>
<path opacity="0.5" fill-rule="evenodd" clip-rule="evenodd" d="M0.120119 8.07997L3.54179 11.576C3.61618 11.6504 3.69056 11.6504 3.76495 11.576L6.07087 9.27012C6.14525 9.19574 6.14525 9.12136 6.07087 9.04698L4.9551 7.85683L3.39303 7.70805C3.31864 7.70805 3.24426 7.63368 3.24426 7.55929V6.14599L2.64918 5.55091C2.5748 5.47652 2.50041 5.47652 2.42603 5.55091L0.120119 7.85683C0.045735 7.93121 0.045735 8.00559 0.120119 8.07997Z" fill="url(#paint7_linear)"/>
<mask id="mask0" mask-type="alpha" maskUnits="userSpaceOnUse" x="3" y="3" width="11" height="12">
<path opacity="0.5" fill-rule="evenodd" clip-rule="evenodd" d="M8.22821 14.4767C11.1292 14.4767 13.4351 12.0964 13.4351 9.12106C13.4351 6.14569 11.0548 3.76538 8.22821 3.76538C5.32722 3.76538 3.0213 6.14569 3.0213 9.12106C3.0213 12.0964 5.32722 14.4767 8.22821 14.4767Z" fill="white"/>
</mask>
<g mask="url(#mask0)">
<path opacity="0.5" fill-rule="evenodd" clip-rule="evenodd" d="M16.3361 10.2374L12.9144 6.74134C12.84 6.66695 12.7656 6.66695 12.6912 6.74134L10.3853 9.04726C10.3109 9.12164 10.3109 9.19601 10.3853 9.2704L11.5011 10.3862L13.0631 10.5349C13.1375 10.5349 13.2119 10.6093 13.2119 10.6837V12.097L13.807 12.6921C13.8814 12.7665 13.9558 12.7665 14.0301 12.6921L16.3361 10.3862C16.4105 10.3862 16.4105 10.3118 16.3361 10.2374Z" fill="url(#paint8_linear)"/>
<path opacity="0.5" fill-rule="evenodd" clip-rule="evenodd" d="M13.2119 15.7421V10.7584C13.2119 10.684 13.1375 10.6096 13.0632 10.6096H9.79025C9.71586 10.6096 9.64148 10.684 9.64148 10.7584V12.3205L10.6829 13.6594C10.7572 13.7337 10.7572 13.8081 10.6829 13.8825L9.64148 14.9239V15.7421C9.64148 15.8165 9.71586 15.8909 9.79025 15.8909H13.0632C13.1375 15.8909 13.2119 15.8165 13.2119 15.7421Z" fill="url(#paint9_linear)"/>
<path opacity="0.5" fill-rule="evenodd" clip-rule="evenodd" d="M7.26123 17.3783L10.6829 13.8822C10.7573 13.8078 10.7573 13.7334 10.6829 13.659L8.377 11.3532C8.30261 11.2788 8.22824 11.2788 8.15385 11.3532L7.03809 12.4689L6.81493 14.1054C6.81493 14.1797 6.74055 14.2541 6.66617 14.2541H5.25286L4.65778 14.8492C4.58339 14.9236 4.58339 14.998 4.65778 15.0724L6.9637 17.3783C7.03808 17.4527 7.18685 17.4527 7.26123 17.3783Z" fill="url(#paint10_linear)"/>
<path opacity="0.5" fill-rule="evenodd" clip-rule="evenodd" d="M1.83103 14.2543H6.66602C6.7404 14.2543 6.81478 14.1799 6.81478 14.1055V10.8326C6.81478 10.7582 6.7404 10.6838 6.66602 10.6838H5.02955L3.83941 11.6508C3.76503 11.7252 3.69064 11.7252 3.61625 11.6508L2.64926 10.6838H1.83103C1.75665 10.6838 1.68226 10.7582 1.68226 10.8326V14.1055C1.60787 14.1799 1.68226 14.2543 1.83103 14.2543Z" fill="url(#paint11_linear)"/>
<path opacity="0.5" fill-rule="evenodd" clip-rule="evenodd" d="M3.24432 2.5759V7.55966C3.24432 7.63405 3.31871 7.70842 3.39309 7.70842H6.66601C6.74039 7.70842 6.81478 7.63405 6.81478 7.55966V5.99759L5.77339 4.73304C5.699 4.65866 5.699 4.58428 5.77339 4.5099L6.81478 3.46852V2.65029C6.81478 2.57591 6.74039 2.50151 6.66601 2.50151H3.39309C3.31871 2.42713 3.24432 2.50152 3.24432 2.5759Z" fill="url(#paint12_linear)"/>
<path opacity="0.5" fill-rule="evenodd" clip-rule="evenodd" d="M9.26947 0.939089L5.84778 4.43514C5.7734 4.50952 5.7734 4.58392 5.84778 4.65831L8.1537 6.9642C8.22808 7.03859 8.30246 7.03859 8.37684 6.9642L9.49261 5.84844L9.64139 4.212C9.64139 4.13761 9.71577 4.06322 9.79015 4.06322H11.2035L11.7985 3.46815C11.8729 3.39377 11.8729 3.31937 11.7985 3.24499L9.49261 0.939089C9.41823 0.864705 9.34385 0.864705 9.26947 0.939089Z" fill="url(#paint13_linear)"/>
<path opacity="0.5" fill-rule="evenodd" clip-rule="evenodd" d="M14.6996 4.06396H9.86465C9.79026 4.06396 9.71588 4.13836 9.71588 4.21274V7.48565C9.71588 7.56003 9.79026 7.63443 9.86465 7.63443H11.5011L12.6913 6.66742C12.7656 6.59303 12.84 6.59303 12.9144 6.66742L13.8814 7.63443H14.6996C14.774 7.63443 14.8484 7.56003 14.8484 7.48565V4.21274C14.8484 4.13836 14.774 4.06396 14.6996 4.06396Z" fill="url(#paint14_linear)"/>
<path opacity="0.5" fill-rule="evenodd" clip-rule="evenodd" d="M0.120241 8.07997L3.54192 11.576C3.6163 11.6504 3.69069 11.6504 3.76507 11.576L6.07099 9.27012C6.14538 9.19574 6.14538 9.12136 6.07099 9.04698L4.95522 7.85683L3.39315 7.70805C3.31876 7.70805 3.24438 7.63368 3.24438 7.55929V6.14599L2.64931 5.55091C2.57492 5.47652 2.50053 5.47652 2.42615 5.55091L0.120241 7.85683C0.045857 7.93121 0.045857 8.00559 0.120241 8.07997Z" fill="url(#paint15_linear)"/>
</g>
<path opacity="0.5" fill-rule="evenodd" clip-rule="evenodd" d="M13.2118 10.7585V12.1718L13.8069 12.7668L13.2118 10.7585ZM12.9143 6.66731L13.8813 7.63432H14.6995L12.9143 6.66731ZM9.79012 4.06386H11.2034L11.7985 3.46879L9.79012 4.06386ZM5.77336 4.43578L6.81474 3.3944V2.57617L5.77336 4.43578ZM3.24429 7.55993V6.14664L2.64921 5.55155L3.24429 7.55993ZM3.61621 11.5767L2.64921 10.6097H1.83099L3.61621 11.5767ZM6.66598 14.2545H5.25267L4.65759 14.8496L6.66598 14.2545ZM10.6827 13.8826L9.64135 14.924V15.7422L10.6827 13.8826Z" fill="#055387"/>
<path d="M24.518 10.5342C24.518 10.6829 24.518 10.7573 24.4437 10.9061C24.4437 11.0549 24.3693 11.1292 24.2949 11.278C24.2205 11.4268 24.0717 11.5012 23.923 11.5755C23.7742 11.6499 23.6254 11.6499 23.4023 11.7243H21.6914V9.4928H23.4023C23.6254 9.4928 23.8486 9.56717 23.9973 9.64155C24.1461 9.71594 24.2949 9.8647 24.3693 10.0135C24.4436 10.0879 24.518 10.311 24.518 10.5342ZM32.7003 12.9888V11.9475C32.7003 11.7987 32.7003 11.7243 32.6259 11.7243C32.6259 11.6499 32.5515 11.6499 32.4028 11.6499H29.2786C29.1299 11.6499 28.9811 11.6499 28.8323 11.5755C28.6836 11.5012 28.6092 11.4268 28.6092 11.3524C28.5348 11.278 28.5348 11.1292 28.5348 10.9061V9.56716H31.8821C31.9565 9.56716 32.0309 9.56718 32.0309 9.4928C32.0309 9.41841 32.1052 9.34401 32.1052 9.26963V8.30264C32.1052 8.22826 32.1052 8.07947 32.0309 8.07947C32.0309 8.00509 31.9565 8.00511 31.8821 8.00511H28.5348V7.11249C28.5348 6.96372 28.5348 6.81495 28.6092 6.74056C28.6836 6.66618 28.7579 6.51742 28.8323 6.44303C28.9067 6.36865 29.1299 6.36864 29.2786 6.36864H32.254C32.3284 6.36864 32.4028 6.36864 32.4028 6.29425C32.4028 6.21987 32.4772 6.21988 32.4772 6.07111V5.02973C32.4772 4.95535 32.4772 4.80657 32.4028 4.80657C32.4028 4.73218 32.3284 4.73218 32.254 4.73218H28.9067C28.5348 4.73218 28.1629 4.80657 27.9397 4.88096C27.6422 5.02972 27.419 5.1785 27.2703 5.40166C27.1215 5.62481 26.9727 5.84796 26.8983 6.1455C26.824 6.44304 26.7496 6.66617 26.7496 6.96371V10.9061C26.7496 11.2036 26.7496 11.4268 26.824 11.7243C26.8983 11.9475 26.9727 12.245 27.1959 12.3938C27.3446 12.6169 27.5678 12.7657 27.8653 12.9145C28.1629 13.0632 28.5348 13.1376 28.9067 13.1376H32.4028C32.4772 13.1376 32.5515 13.1376 32.6259 13.0632C32.7003 13.1376 32.7003 13.0632 32.7003 12.9888ZM46.0895 8.74895C46.3127 8.5258 46.5358 8.30263 46.6846 8.07947C46.8333 7.85632 46.9821 7.5588 47.0565 7.18688L47.5772 5.02973V4.95534C47.5772 4.88096 47.5772 4.88096 47.5028 4.88096C47.5028 4.88096 47.4284 4.80657 47.354 4.80657H46.0151C45.9407 4.80657 45.9407 4.80657 45.8663 4.80657C45.792 4.80657 45.792 4.88096 45.792 4.95534L45.2713 6.96371C45.1969 7.18686 45.1225 7.41003 45.0481 7.5588C44.9737 7.70757 44.825 7.78195 44.6762 7.85633C44.5274 7.93071 44.4531 8.00511 44.3043 8.00511C44.1555 8.00511 44.0811 8.00511 43.9324 8.00511H43.0397V4.95534C43.0397 4.88096 43.0397 4.80657 43.0397 4.80657C43.0397 4.80657 42.9654 4.80657 42.891 4.80657H41.5521C41.4777 4.80657 41.4033 4.80657 41.4033 4.80657C41.4033 4.80657 41.3289 4.88096 41.3289 4.95534V12.9145C41.3289 12.9888 41.3289 13.0632 41.4033 13.0632C41.4033 13.0632 41.4777 13.0632 41.5521 13.0632H42.891C42.9654 13.0632 43.0397 13.0632 43.0397 13.0632C43.0397 13.0632 43.1141 12.9888 43.1141 12.9145V9.34402H44.0811C44.3787 9.34402 44.6018 9.34402 44.7506 9.41841C44.9737 9.49279 45.1225 9.56717 45.1969 9.71594C45.3457 9.86471 45.42 10.0879 45.4944 10.311L46.2383 12.9145C46.2383 12.9888 46.3127 13.0632 46.3127 13.0632C46.387 13.0632 46.387 13.0632 46.4614 13.0632H47.8003C47.8747 13.0632 47.8747 13.0632 47.9491 12.9888L48.0235 12.9145C48.0235 12.8401 48.0235 12.8401 48.0235 12.8401L47.2797 10.0879C47.2053 9.93909 47.2053 9.71593 47.1309 9.56716C47.0565 9.41839 46.9821 9.26962 46.9077 9.19524C46.8334 9.04647 46.6846 8.97209 46.6102 8.89771C46.4614 8.97209 46.2383 8.82334 46.0895 8.74895ZM50.9989 10.0135L51.4452 8.52579L51.8915 6.81495H51.9659L52.4122 8.52579L52.8585 10.0135H50.9989ZM53.2304 11.5012L53.6767 13.0632C53.6767 13.1376 53.7511 13.212 53.8255 13.212C53.8999 13.212 53.9742 13.212 54.0486 13.212H55.4619C55.5363 13.212 55.5363 13.212 55.6107 13.1376L55.6851 13.0632V12.9888L53.2304 5.47602C53.156 5.25287 53.0816 5.1785 53.0072 5.02973C52.9329 4.95535 52.8585 4.88096 52.7097 4.88096C52.5609 4.88096 52.4866 4.80657 52.2634 4.80657H51.5939C51.4452 4.80657 51.2964 4.80657 51.222 4.88096C51.1476 4.88096 50.9989 4.95533 50.9245 5.1041C50.8501 5.17848 50.7757 5.32725 50.7757 5.47602L48.321 12.9888C48.321 13.0632 48.321 13.1376 48.321 13.1376C48.321 13.212 48.3954 13.212 48.4698 13.212H49.8087C49.8831 13.212 49.9575 13.212 50.0319 13.1376C50.1063 13.1376 50.1063 13.0632 50.1063 12.9888L50.5526 11.5012H53.2304ZM60.5945 7.63319C60.5945 7.85634 60.5201 8.0051 60.4457 8.22825C60.3713 8.37702 60.2225 8.52579 60.0738 8.60017C59.925 8.67456 59.7018 8.74895 59.4043 8.74895H57.8422V6.44303H59.3299C59.5531 6.44303 59.7762 6.5174 59.925 6.59179C60.0738 6.66617 60.2225 6.74057 60.2969 6.88934C60.3713 7.03811 60.4457 7.1125 60.4457 7.26126C60.5201 7.33565 60.5945 7.48442 60.5945 7.63319ZM57.8422 12.9888V10.2366H59.4043C59.8506 10.2366 60.2225 10.1622 60.5201 10.0879C60.8176 10.0135 61.1152 9.86471 61.3383 9.71594C61.5615 9.56717 61.7102 9.34401 61.859 9.19524C62.0077 8.97209 62.0822 8.82333 62.1565 8.60017C62.2309 8.37702 62.3053 8.22826 62.3053 8.00511C62.3053 7.85634 62.3797 7.63318 62.3797 7.48441C62.3797 7.11249 62.3053 6.74057 62.1565 6.44303C62.0078 6.14549 61.859 5.84795 61.6358 5.6248C61.4127 5.40165 61.1151 5.17848 60.7432 5.1041C60.3713 4.95533 59.9994 4.88096 59.6274 4.88096H56.7265C56.5777 4.88096 56.4289 4.88096 56.2802 4.95534C56.2058 5.02973 56.1314 5.1041 56.057 5.17849C55.9826 5.25287 55.9826 5.40164 55.9826 5.55041V12.9145C55.9826 12.9888 55.9826 13.0632 56.057 13.1376C56.1314 13.212 56.1314 13.212 56.2802 13.212H57.5447C57.6191 13.212 57.6935 13.212 57.6935 13.212C57.7679 13.212 57.7678 13.212 57.7678 13.1376C57.8422 13.1376 57.8422 13.0632 57.8422 12.9888ZM68.9999 6.1455V5.1041C68.9999 5.02972 68.9999 4.95534 68.9255 4.88096C68.9255 4.88096 68.8511 4.80657 68.7024 4.80657H62.6772C62.6028 4.80657 62.5285 4.80657 62.5285 4.88096C62.5285 4.88096 62.4541 4.95533 62.4541 5.1041V6.1455C62.4541 6.21988 62.4541 6.29425 62.5285 6.29425C62.5285 6.36864 62.6028 6.36864 62.6772 6.36864H64.76V12.9145C64.76 12.9888 64.76 13.0632 64.8344 13.1376C64.9087 13.212 64.9088 13.212 65.0575 13.212H66.322C66.4708 13.212 66.5452 13.212 66.5452 13.1376C66.6196 13.1376 66.6196 13.0632 66.6196 12.9145V6.36864H68.7767C68.8511 6.36864 68.9255 6.36864 68.9255 6.29425C68.9255 6.29425 68.9999 6.21988 68.9999 6.1455ZM20.5757 13.212H23.551C23.923 13.212 24.2949 13.1376 24.6668 12.9888C25.0387 12.8401 25.3363 12.6913 25.5594 12.4682C25.7826 12.245 26.0057 11.9475 26.1545 11.6499C26.3033 11.3524 26.3777 10.9805 26.3777 10.6086C26.3777 10.4598 26.3777 10.311 26.3777 10.1623C26.3777 10.0135 26.3033 9.79032 26.2289 9.56716C26.1545 9.34401 26.0801 9.19525 25.9313 8.9721C25.7826 8.74894 25.6338 8.60017 25.4107 8.4514C25.1875 8.30263 24.89 8.15386 24.5924 8.07947C24.2949 8.00509 23.8486 7.93072 23.4023 7.93072H21.6914V6.44303H25.2619C25.3363 6.44303 25.4107 6.44303 25.4107 6.36864C25.4107 6.36864 25.485 6.29425 25.485 6.21987V5.17849C25.485 5.1041 25.485 5.02973 25.4107 4.95534C25.4107 4.88096 25.3363 4.88096 25.2619 4.88096H20.7244C20.5757 4.88096 20.4269 4.88096 20.2781 4.95534C20.2037 5.02973 20.055 5.10411 20.055 5.25288C19.9806 5.40165 19.9806 5.55042 19.9806 5.69919V12.5425C19.9806 12.6913 19.9806 12.8401 20.055 12.9888C20.1294 13.0632 20.1294 13.1376 20.2781 13.212C20.2781 13.212 20.4269 13.212 20.5757 13.212ZM34.4855 5.69919L34.4112 7.48441C34.4112 8.07948 34.3368 8.67457 34.2624 9.12087C34.188 9.86472 34.1136 11.7243 33.1466 11.7243C33.0722 11.7243 32.9979 11.7243 32.9235 11.7987C32.9235 11.8731 32.8491 11.9475 32.8491 12.0219V13.0632C32.8491 13.1376 32.8491 13.212 32.9235 13.2864C32.9235 13.3608 32.9979 13.3608 33.1466 13.3608C33.8905 13.3608 34.5599 13.2864 35.0806 12.4682C35.2294 12.1706 35.3781 11.8731 35.5269 11.5755C35.6013 11.2036 35.7501 10.8317 35.7501 10.4598C35.8245 10.0135 35.8988 9.56718 35.8988 9.12087C35.9732 8.60018 35.9732 8.07948 36.0476 7.48441L36.122 6.66618H38.4279V13.212C38.4279 13.2864 38.4279 13.3608 38.5023 13.3608C38.5023 13.3608 38.5767 13.4352 38.6511 13.4352H39.9156C39.99 13.4352 40.0644 13.4352 40.0644 13.4352C40.1388 13.4352 40.1388 13.4352 40.1388 13.3608C40.1388 13.3608 40.1388 13.2864 40.1388 13.212V5.84794C40.1388 5.69917 40.1388 5.55042 40.0644 5.40166C39.99 5.25289 39.9156 5.17848 39.8412 5.1041C39.7668 5.02972 39.6181 5.02973 39.3949 5.02973H35.155C35.0062 5.02973 34.8575 5.02972 34.7087 5.1041C34.6343 5.17848 34.5599 5.25289 34.4855 5.40166C34.5599 5.32727 34.5599 5.47604 34.4855 5.69919Z" fill="#1B4D88"/>
<defs>
<linearGradient id="paint0_linear" x1="10.2485" y1="9.30893" x2="16.4442" y2="10.1797" gradientUnits="userSpaceOnUse">
<stop stop-color="#A2D9F7"/>
<stop offset="0.5" stop-color="#1B9DD9"/>
<stop offset="1" stop-color="#055795"/>
</linearGradient>
<linearGradient id="paint1_linear" x1="9.58944" y1="10.7039" x2="13.286" y2="15.7919" gradientUnits="userSpaceOnUse">
<stop stop-color="#A2D9F7"/>
<stop offset="0.5" stop-color="#1B9DD9"/>
<stop offset="1" stop-color="#055795"/>
</linearGradient>
<linearGradient id="paint2_linear" x1="8.12137" y1="11.2208" x2="7.24237" y2="17.4756" gradientUnits="userSpaceOnUse">
<stop stop-color="#A2D9F7"/>
<stop offset="0.5" stop-color="#1B9DD9"/>
<stop offset="1" stop-color="#055795"/>
</linearGradient>
<linearGradient id="paint3_linear" x1="6.84873" y1="10.5932" x2="1.76663" y2="14.1517" gradientUnits="userSpaceOnUse">
<stop stop-color="#A2D9F7"/>
<stop offset="0.5" stop-color="#1B9DD9"/>
<stop offset="1" stop-color="#055795"/>
</linearGradient>
<linearGradient id="paint4_linear" x1="6.845" y1="7.62652" x2="3.23491" y2="2.47072" gradientUnits="userSpaceOnUse">
<stop stop-color="#A2D9F7"/>
<stop offset="0.5" stop-color="#1B9DD9"/>
<stop offset="1" stop-color="#055795"/>
</linearGradient>
<linearGradient id="paint5_linear" x1="8.31238" y1="7.07318" x2="9.30139" y2="0.828851" gradientUnits="userSpaceOnUse">
<stop stop-color="#A2D9F7"/>
<stop offset="0.5" stop-color="#1B9DD9"/>
<stop offset="1" stop-color="#055795"/>
</linearGradient>
<linearGradient id="paint6_linear" x1="9.72245" y1="7.71514" x2="14.7721" y2="4.04635" gradientUnits="userSpaceOnUse">
<stop stop-color="#A2D9F7"/>
<stop offset="0.5" stop-color="#1B9DD9"/>
<stop offset="1" stop-color="#055795"/>
</linearGradient>
<linearGradient id="paint7_linear" x1="6.22633" y1="9.04668" x2="0.041867" y2="8.06718" gradientUnits="userSpaceOnUse">
<stop stop-color="#A2D9F7"/>
<stop offset="0.5" stop-color="#1B9DD9"/>
<stop offset="1" stop-color="#055795"/>
</linearGradient>
<linearGradient id="paint8_linear" x1="10.2486" y1="9.30893" x2="16.4443" y2="10.1797" gradientUnits="userSpaceOnUse">
<stop stop-color="#A2D9F7"/>
<stop offset="0.5" stop-color="#1B9DD9"/>
<stop offset="1" stop-color="#055795"/>
</linearGradient>
<linearGradient id="paint9_linear" x1="9.58956" y1="10.7039" x2="13.2862" y2="15.7919" gradientUnits="userSpaceOnUse">
<stop stop-color="#A2D9F7"/>
<stop offset="0.5" stop-color="#1B9DD9"/>
<stop offset="1" stop-color="#055795"/>
</linearGradient>
<linearGradient id="paint10_linear" x1="8.12149" y1="11.2208" x2="7.24249" y2="17.4756" gradientUnits="userSpaceOnUse">
<stop stop-color="#A2D9F7"/>
<stop offset="0.5" stop-color="#1B9DD9"/>
<stop offset="1" stop-color="#055795"/>
</linearGradient>
<linearGradient id="paint11_linear" x1="6.84885" y1="10.5932" x2="1.76675" y2="14.1517" gradientUnits="userSpaceOnUse">
<stop stop-color="#A2D9F7"/>
<stop offset="0.5" stop-color="#1B9DD9"/>
<stop offset="1" stop-color="#055795"/>
</linearGradient>
<linearGradient id="paint12_linear" x1="6.84512" y1="7.62652" x2="3.23503" y2="2.47072" gradientUnits="userSpaceOnUse">
<stop stop-color="#A2D9F7"/>
<stop offset="0.5" stop-color="#1B9DD9"/>
<stop offset="1" stop-color="#055795"/>
</linearGradient>
<linearGradient id="paint13_linear" x1="8.31251" y1="7.07318" x2="9.30152" y2="0.828851" gradientUnits="userSpaceOnUse">
<stop stop-color="#A2D9F7"/>
<stop offset="0.5" stop-color="#1B9DD9"/>
<stop offset="1" stop-color="#055795"/>
</linearGradient>
<linearGradient id="paint14_linear" x1="9.72258" y1="7.71514" x2="14.7722" y2="4.04635" gradientUnits="userSpaceOnUse">
<stop stop-color="#A2D9F7"/>
<stop offset="0.5" stop-color="#1B9DD9"/>
<stop offset="1" stop-color="#055795"/>
</linearGradient>
<linearGradient id="paint15_linear" x1="6.22645" y1="9.04668" x2="0.041989" y2="8.06718" gradientUnits="userSpaceOnUse">
<stop stop-color="#A2D9F7"/>
<stop offset="0.5" stop-color="#1B9DD9"/>
<stop offset="1" stop-color="#055795"/>
</linearGradient>
</defs>
</svg>
