<svg width="63" height="21" viewBox="0 0 63 21" fill="none" xmlns="http://www.w3.org/2000/svg">
<path d="M6.01187 13.9236C5.71409 13.7003 5.34186 13.5514 4.96964 13.477C4.59741 13.3281 4.22519 13.3281 3.85296 13.3281C3.62962 13.3281 3.40629 13.3281 3.18295 13.4025C2.95962 13.477 2.81073 13.5514 2.66184 13.6258C2.51295 13.7003 2.36406 13.8492 2.28961 13.9981C2.21517 14.147 2.14072 14.2959 2.14072 14.4447C2.14072 14.5936 2.14072 14.7425 2.21517 14.817C2.28961 14.8914 2.36406 15.0403 2.51295 15.1148C2.66184 15.1892 2.81073 15.2636 3.03406 15.3381C3.2574 15.4125 3.48073 15.4125 3.70407 15.487L4.22519 15.5614C4.52297 15.6359 4.82075 15.6359 5.11853 15.7848C5.41631 15.8592 5.63964 16.0081 5.86298 16.157C6.08631 16.3059 6.30965 16.5292 6.38409 16.7525C6.53298 16.9759 6.60743 17.2737 6.60743 17.6459C6.60743 18.0181 6.53298 18.3903 6.38409 18.6881C6.2352 18.9859 6.01187 19.2092 5.71409 19.4326C5.41631 19.6559 5.11853 19.8048 4.7463 19.8792C4.37408 19.9537 4.00185 20.0281 3.55518 20.0281C3.33184 20.0281 3.03406 20.0281 2.73628 19.9537C2.4385 19.8792 2.21517 19.8792 1.91739 19.7303C1.61961 19.6559 1.39627 19.507 1.17294 19.4326C0.9496 19.2837 0.726265 19.1348 0.50293 18.9859L1.17294 18.0181C1.32183 18.167 1.47072 18.2414 1.61961 18.3159C1.7685 18.3903 1.99183 18.5392 2.21517 18.6137C2.4385 18.6881 2.66184 18.7626 2.88517 18.7626C3.10851 18.837 3.33184 18.837 3.55518 18.837C3.77852 18.837 4.00185 18.837 4.22519 18.7626C4.44852 18.6881 4.59741 18.6137 4.7463 18.5392C4.89519 18.4648 5.04408 18.3159 5.11853 18.167C5.19297 18.0181 5.26742 17.8692 5.26742 17.7203C5.26742 17.4225 5.11853 17.1992 4.82075 17.0503C4.52297 16.9014 4.0763 16.7525 3.55518 16.6781L3.18295 16.6037C2.88517 16.5292 2.66184 16.5292 2.36406 16.3803C2.06628 16.3059 1.84294 16.157 1.61961 16.0081C1.39627 15.8592 1.24738 15.6359 1.09849 15.4125C0.949601 15.1892 0.875155 14.8914 0.875155 14.5192C0.875155 14.147 0.949601 13.7747 1.09849 13.5514C1.24738 13.2536 1.47072 13.0303 1.7685 12.807C2.06628 12.5836 2.36406 12.4347 2.73628 12.3603C3.10851 12.2858 3.48073 12.2114 3.85296 12.2114C4.37408 12.2114 4.89519 12.2858 5.34186 12.4347C5.78853 12.5836 6.16076 12.807 6.60743 13.0303L6.01187 13.9236ZM10.1808 14.5192C10.553 14.5192 10.8508 14.5936 11.1486 14.7425C11.4464 14.8914 11.6697 15.0403 11.893 15.2636C12.1164 15.487 12.2653 15.7848 12.4141 16.0825C12.563 16.3803 12.563 16.7525 12.563 17.1992C12.563 17.2737 12.563 17.3481 12.563 17.4225C12.563 17.497 12.563 17.5714 12.563 17.6459H8.76634C8.76634 17.8692 8.84078 18.0926 8.98967 18.2414C9.06412 18.3903 9.21301 18.5392 9.3619 18.6137C9.51079 18.6881 9.65968 18.7626 9.80857 18.837C9.95746 18.9115 10.1808 18.9115 10.3297 18.9115C10.553 18.9115 10.8508 18.837 11.0741 18.7626C11.2975 18.6881 11.5953 18.5392 11.8186 18.3903L12.4141 19.2092C12.1164 19.507 11.7441 19.6559 11.4464 19.8048C11.0741 19.8792 10.7019 19.9537 10.3297 19.9537C9.95746 19.9537 9.58523 19.8792 9.28745 19.7303C8.98967 19.5815 8.69189 19.4326 8.46856 19.2092C8.24522 18.9859 8.02189 18.6881 7.94744 18.3903C7.79855 18.0926 7.72411 17.7203 7.72411 17.2737C7.72411 16.9014 7.79855 16.5292 7.94744 16.157C8.09633 15.8592 8.24522 15.5614 8.46856 15.2636C8.69189 15.0403 8.98967 14.817 9.28745 14.7425C9.43634 14.5936 9.73413 14.5192 10.1808 14.5192ZM10.1063 15.5614C9.88301 15.5614 9.73413 15.5614 9.58524 15.6359C9.43635 15.7103 9.28745 15.7848 9.21301 15.9336C9.06412 16.0825 8.98967 16.157 8.91523 16.3059C8.84078 16.4548 8.76634 16.6037 8.76634 16.827H11.4464C11.3719 16.4548 11.223 16.0825 10.9997 15.8592C10.7764 15.6359 10.4786 15.5614 10.1063 15.5614ZM16.062 14.5192C16.4342 14.5192 16.8064 14.5936 17.1042 14.7425C17.402 14.8914 17.6998 15.1147 17.9231 15.3381L17.1786 16.0825C17.0297 15.9336 16.8064 15.7848 16.5831 15.7103C16.3597 15.6359 16.1364 15.5614 15.9131 15.5614C15.6897 15.5614 15.4664 15.6359 15.3175 15.7103C15.0942 15.7848 14.9453 15.9336 14.8708 16.0825C14.7219 16.2314 14.6475 16.3803 14.5731 16.6037C14.4986 16.827 14.4242 17.0503 14.4242 17.2737C14.4242 17.497 14.4986 17.7203 14.5731 17.9437C14.6475 18.167 14.7219 18.3159 14.8708 18.4648C15.0197 18.6137 15.1686 18.6881 15.3175 18.837C15.4664 18.9115 15.6897 18.9859 15.9131 18.9859C16.1364 18.9859 16.3597 18.9115 16.5831 18.837C16.8064 18.7626 16.9553 18.6137 17.1786 18.4648L17.8486 19.2092C17.6253 19.507 17.3275 19.6559 17.0297 19.8048C16.732 19.9537 16.3597 20.0281 15.9875 20.0281C15.6153 20.0281 15.2431 19.9537 14.8708 19.8048C14.5731 19.6559 14.2753 19.507 14.0519 19.2092C13.8286 18.9859 13.6053 18.6881 13.5308 18.3159C13.3819 18.0181 13.3075 17.6459 13.3075 17.2737C13.3075 16.9014 13.3819 16.5292 13.5308 16.2314C13.6797 15.9336 13.8286 15.6359 14.0519 15.3381C14.2753 15.1147 14.5731 14.8914 14.8708 14.7425C15.3175 14.5936 15.6897 14.5192 16.062 14.5192ZM23.8043 17.6459C23.8043 18.0181 23.7298 18.3903 23.5809 18.6881C23.432 18.9859 23.2831 19.2092 23.0598 19.4326C22.8365 19.6559 22.6131 19.7303 22.3153 19.8792C22.0176 19.9537 21.7198 20.0281 21.422 20.0281C21.1242 20.0281 20.8264 19.9537 20.5287 19.8792C20.2309 19.8048 20.0076 19.6559 19.7842 19.4326C19.5609 19.2837 19.412 18.9859 19.2631 18.6881C19.1142 18.3903 19.0398 18.0181 19.0398 17.6459V14.6681H20.1564V17.497C20.1564 17.7203 20.1564 17.9437 20.2309 18.0926C20.3053 18.2414 20.3798 18.3903 20.5287 18.5392C20.6776 18.6137 20.752 18.6881 20.9009 18.7626C21.0498 18.837 21.1987 18.837 21.422 18.837C21.5709 18.837 21.7942 18.837 21.9431 18.7626C22.092 18.6881 22.2409 18.6137 22.3153 18.5392C22.4642 18.4648 22.5387 18.3159 22.6131 18.0926C22.6876 17.9437 22.6876 17.7203 22.6876 17.497V14.6681H23.8043V17.6459ZM27.8987 14.5192C28.0476 14.5192 28.1965 14.5192 28.3454 14.5192C28.4943 14.5192 28.6432 14.5936 28.7176 14.5936L28.4199 15.7103C28.271 15.6359 28.1965 15.6359 27.9732 15.5614C27.8243 15.5614 27.6754 15.487 27.5265 15.487C27.3776 15.487 27.1543 15.487 27.0054 15.5614C26.8565 15.6359 26.7076 15.7103 26.6332 15.8592C26.5587 16.0081 26.4098 16.157 26.4098 16.3059C26.3354 16.4548 26.3354 16.6781 26.3354 16.9014V19.7303H25.2187V14.5936H26.3354V15.1892C26.4843 14.9659 26.7076 14.7425 27.0054 14.6681C27.2287 14.5936 27.5265 14.5192 27.8987 14.5192ZM31.621 14.5192C31.9932 14.5192 32.291 14.5936 32.5888 14.7425C32.8866 14.8914 33.1099 15.0403 33.3332 15.2636C33.5566 15.487 33.7055 15.7848 33.8543 16.0825C34.0032 16.3803 34.0032 16.7525 34.0032 17.1992C34.0032 17.2737 34.0032 17.3481 34.0032 17.4225C34.0032 17.497 34.0032 17.5714 34.0032 17.6459H30.281C30.281 17.8692 30.3554 18.0926 30.5043 18.2414C30.5788 18.3903 30.7276 18.5392 30.8765 18.6137C31.0254 18.6881 31.1743 18.7626 31.3232 18.837C31.4721 18.9115 31.6954 18.9115 31.8443 18.9115C32.0677 18.9115 32.3654 18.837 32.5888 18.7626C32.8121 18.6881 33.1099 18.5392 33.3332 18.3903L33.8543 19.2092C33.5566 19.507 33.1843 19.6559 32.8866 19.8048C32.5143 19.8792 32.1421 19.9537 31.7699 19.9537C31.3977 19.9537 31.0254 19.8792 30.7276 19.7303C30.4299 19.5815 30.1321 19.4326 29.9088 19.2092C29.6854 18.9859 29.4621 18.6881 29.3876 18.3903C29.2387 18.0926 29.1643 17.7203 29.1643 17.2737C29.1643 16.9014 29.2387 16.5292 29.3876 16.157C29.5365 15.8592 29.6854 15.5614 29.9088 15.2636C30.1321 15.0403 30.4299 14.817 30.7276 14.7425C30.8765 14.5936 31.2488 14.5192 31.621 14.5192ZM31.621 15.5614C31.3977 15.5614 31.2488 15.5614 31.0999 15.6359C30.951 15.7103 30.8021 15.7848 30.7276 15.9336C30.5788 16.0825 30.5043 16.157 30.4299 16.3059C30.3554 16.4548 30.281 16.6037 30.281 16.827H32.961C32.8866 16.4548 32.7377 16.0825 32.5143 15.8592C32.291 15.6359 31.9932 15.5614 31.621 15.5614ZM38.9166 12.1369C39.2144 12.1369 39.5866 12.1369 39.8844 12.2114C40.1822 12.2858 40.48 12.3603 40.7777 12.5092C41.0755 12.6581 41.2989 12.807 41.5222 13.0303C41.7455 13.2536 41.8944 13.477 42.0433 13.7003L41.0011 14.3703C40.7777 13.9981 40.48 13.7747 40.1077 13.5514C39.7355 13.3281 39.3633 13.2536 38.9166 13.2536C38.5444 13.2536 38.1722 13.3281 37.8744 13.477C37.5766 13.6258 37.2788 13.7747 37.0555 14.0725C36.8321 14.2959 36.6088 14.5936 36.5344 14.9659C36.3855 15.3381 36.311 15.6359 36.311 16.0825C36.311 16.4548 36.3855 16.827 36.5344 17.1992C36.6833 17.5714 36.8321 17.7948 37.0555 18.0926C37.2788 18.3159 37.5766 18.5392 37.8744 18.6137C38.1722 18.7626 38.5444 18.837 38.9166 18.837C39.3633 18.837 39.7355 18.7626 40.1077 18.5392C40.48 18.3159 40.7777 18.0926 41.0011 17.7203L41.9689 18.4648C41.82 18.6881 41.5966 18.9115 41.3733 19.1348C41.15 19.3581 40.9266 19.507 40.6289 19.5815C40.3311 19.7303 40.1077 19.8048 39.81 19.8792C39.5122 19.9537 39.2144 19.9537 38.8422 19.9537C38.2466 19.9537 37.7255 19.8792 37.2788 19.6559C36.8321 19.4326 36.3855 19.2092 36.0133 18.837C35.641 18.4648 35.4177 18.0926 35.1944 17.5714C34.971 17.1248 34.8966 16.6037 34.8966 16.0081C34.8966 15.4125 34.971 14.8914 35.1944 14.4447C35.4177 13.9981 35.641 13.5514 36.0133 13.1792C36.3855 12.807 36.7577 12.5836 37.2788 12.3603C37.7999 12.2858 38.3211 12.1369 38.9166 12.1369ZM45.5422 14.5192C45.9145 14.5192 46.2867 14.5936 46.6589 14.7425C47.0311 14.8914 47.2545 15.0403 47.5522 15.3381C47.7756 15.5614 47.9989 15.8592 48.1478 16.2314C48.2967 16.5292 48.3711 16.9014 48.3711 17.2737C48.3711 17.6459 48.2967 18.0181 48.1478 18.3159C47.9989 18.6137 47.85 18.9115 47.5522 19.2092C47.3289 19.4326 47.0311 19.6559 46.6589 19.8048C46.2867 19.9537 45.9889 20.0281 45.5422 20.0281C45.17 20.0281 44.7978 19.9537 44.4256 19.8048C44.0533 19.6559 43.83 19.507 43.5322 19.2092C43.3089 18.9859 43.0855 18.6881 42.9366 18.3159C42.7878 18.0181 42.7133 17.6459 42.7133 17.2737C42.7133 16.9014 42.7878 16.5292 42.9366 16.2314C43.0855 15.9336 43.2344 15.6359 43.5322 15.3381C43.7555 15.1147 44.0533 14.8914 44.4256 14.7425C44.7978 14.5936 45.17 14.5192 45.5422 14.5192ZM45.5422 15.5614C45.3189 15.5614 45.0956 15.6359 44.8722 15.7103C44.6489 15.7848 44.5 15.9336 44.3511 16.0825C44.2022 16.2314 44.1278 16.3803 43.9789 16.6037C43.9044 16.827 43.83 17.0503 43.83 17.2737C43.83 17.497 43.9044 17.7203 43.9789 17.9437C44.0533 18.167 44.2022 18.3159 44.3511 18.4648C44.5 18.6137 44.6489 18.6881 44.8722 18.837C45.0956 18.9115 45.3189 18.9859 45.5422 18.9859C45.7656 18.9859 45.9889 18.9115 46.2122 18.837C46.4356 18.7626 46.5845 18.6137 46.7333 18.4648C46.8822 18.3159 46.9567 18.167 47.1056 17.9437C47.18 17.7203 47.2545 17.497 47.2545 17.2737C47.2545 17.0503 47.18 16.827 47.1056 16.6037C47.0311 16.3803 46.8822 16.2314 46.7333 16.0825C46.5845 15.9336 46.4356 15.8592 46.2122 15.7103C45.9889 15.6359 45.7656 15.5614 45.5422 15.5614ZM51.7212 14.5192C52.0934 14.5192 52.3912 14.5936 52.689 14.7425C52.9867 14.8914 53.2101 15.0403 53.359 15.2636V12.0625H54.4756V19.8048H53.359V19.2092C53.2101 19.4326 52.9867 19.6559 52.689 19.7303C52.3912 19.8792 52.0934 19.9537 51.7212 19.9537C51.3489 19.9537 51.0512 19.8792 50.6789 19.7303C50.3812 19.5815 50.0834 19.4326 49.86 19.1348C49.6367 18.9115 49.4134 18.6137 49.3389 18.2414C49.19 17.9437 49.1156 17.5714 49.1156 17.1248C49.1156 16.7525 49.19 16.3803 49.3389 16.0081C49.4878 15.7103 49.6367 15.4125 49.86 15.1148C50.0834 14.8914 50.3812 14.6681 50.6789 14.5192C50.9767 14.5936 51.3489 14.5192 51.7212 14.5192ZM51.7956 15.5614C51.5723 15.5614 51.3489 15.6359 51.1256 15.7103C50.9023 15.7848 50.7534 15.9336 50.6045 16.0825C50.4556 16.2314 50.3812 16.3803 50.3067 16.6037C50.2323 16.827 50.2323 17.0503 50.2323 17.2737C50.2323 17.497 50.2323 17.7203 50.3067 17.9437C50.3812 18.167 50.4556 18.3159 50.6045 18.4648C50.7534 18.6137 50.9023 18.7626 51.1256 18.837C51.3489 18.9115 51.4978 18.9859 51.7956 18.9859C52.019 18.9859 52.2423 18.9115 52.4656 18.837C52.689 18.7626 52.8379 18.6137 52.9867 18.4648C53.1356 18.3159 53.2101 18.167 53.2845 17.9437C53.359 17.7203 53.4334 17.497 53.4334 17.2737C53.4334 17.0503 53.359 16.827 53.2845 16.6037C53.2101 16.3803 53.1356 16.2314 52.9867 16.0825C52.8379 15.9336 52.689 15.7848 52.4656 15.7103C52.2423 15.6359 52.0934 15.5614 51.7956 15.5614ZM58.1979 14.5192C58.5701 14.5192 58.8679 14.5936 59.1657 14.7425C59.4635 14.8914 59.6868 15.0403 59.9101 15.2636C60.1335 15.487 60.2824 15.7848 60.4313 16.0825C60.5801 16.3803 60.5801 16.7525 60.5801 17.1992C60.5801 17.2737 60.5801 17.3481 60.5801 17.4225C60.5801 17.497 60.5801 17.5714 60.5801 17.6459H56.7834C56.7834 17.8692 56.8579 18.0926 57.0068 18.2414C57.0812 18.3903 57.2301 18.5392 57.379 18.6137C57.5279 18.6881 57.6768 18.7626 57.8257 18.837C57.9746 18.9115 58.1979 18.9115 58.3468 18.9115C58.5701 18.9115 58.8679 18.837 59.0912 18.7626C59.3146 18.6881 59.6124 18.5392 59.8357 18.3903L60.3568 19.2092C60.059 19.507 59.6868 19.6559 59.389 19.8048C59.0168 19.8792 58.6446 19.9537 58.2723 19.9537C57.9001 19.9537 57.5279 19.8792 57.2301 19.7303C56.9323 19.5815 56.6346 19.4326 56.4112 19.2092C56.1879 18.9859 55.9645 18.6881 55.8901 18.3903C55.7412 18.0926 55.6668 17.7203 55.6668 17.2737C55.6668 16.9014 55.7412 16.5292 55.8901 16.157C56.039 15.8592 56.1879 15.5614 56.4112 15.2636C56.6346 15.0403 56.9323 14.817 57.2301 14.7425C57.4534 14.5936 57.8257 14.5192 58.1979 14.5192ZM58.1235 15.5614C57.9001 15.5614 57.7512 15.5614 57.6023 15.6359C57.4534 15.7103 57.3046 15.7848 57.2301 15.9336C57.0812 16.0825 57.0068 16.157 56.9323 16.3059C56.8579 16.4548 56.7834 16.6037 56.7834 16.827H59.4635C59.389 16.4548 59.2401 16.0825 59.0168 15.8592C58.7935 15.6359 58.4957 15.5614 58.1235 15.5614Z" fill="#F59E1F"/>
<path d="M9.73426 9.23368H8.46869V2.8314L6.23534 8.41478H4.89533L2.58753 2.8314V9.15923H1.32196V1.41694H3.25753L5.49089 7.00032L7.72424 1.41694H9.65981V9.23368H9.73426ZM16.3599 9.23368H15.1688V8.56367C15.0199 8.78701 14.7221 9.01034 14.4987 9.15923C14.201 9.30812 13.9032 9.38257 13.531 9.38257C13.1587 9.38257 12.7865 9.30812 12.4887 9.15923C12.1909 9.01034 11.8932 8.86145 11.6698 8.56367C11.4465 8.34033 11.2232 8.04255 11.0743 7.67033C10.9254 7.2981 10.8509 6.92588 10.8509 6.55365C10.8509 6.18143 10.9254 5.73476 11.0743 5.43698C11.2232 5.06475 11.3721 4.76697 11.6698 4.54363C11.8932 4.3203 12.1909 4.09696 12.4887 3.94807C12.7865 3.79918 13.1587 3.72474 13.531 3.72474C13.9032 3.72474 14.2754 3.79918 14.4987 3.94807C14.7965 4.09696 15.0199 4.24585 15.1688 4.54363V3.87363H16.3599V9.23368ZM13.6799 4.84141C13.4565 4.84141 13.2332 4.91586 13.0098 4.9903C12.7865 5.06475 12.6376 5.21364 12.4887 5.36253C12.3398 5.51142 12.2654 5.66031 12.1909 5.88365C12.1165 6.10698 12.1165 6.33032 12.1165 6.55365C12.1165 6.77699 12.1165 7.00032 12.1909 7.22366C12.2654 7.44699 12.3398 7.59588 12.4887 7.74477C12.6376 7.89366 12.7865 8.04255 13.0098 8.117C13.2332 8.19144 13.4565 8.26589 13.6799 8.26589C13.9032 8.26589 14.1265 8.19144 14.3499 8.117C14.5732 8.04255 14.7221 7.89366 14.871 7.74477C15.0199 7.59588 15.0943 7.44699 15.1688 7.22366C15.2432 7.00032 15.3176 6.77699 15.3176 6.55365C15.3176 6.33032 15.2432 6.10698 15.1688 5.88365C15.0943 5.66031 14.9454 5.51142 14.871 5.36253C14.7221 5.21364 14.5732 5.06475 14.3499 4.9903C14.1265 4.84141 13.9032 4.84141 13.6799 4.84141ZM21.7199 5.21364C21.6455 5.1392 21.571 5.13919 21.4221 5.06475C21.2733 4.9903 21.1988 4.9903 21.0499 4.91586C20.901 4.84141 20.7521 4.84141 20.6032 4.84141C20.4544 4.84141 20.3055 4.76697 20.0821 4.76697C19.7843 4.76697 19.4866 4.84141 19.3377 4.91586C19.1888 5.06475 19.0399 5.21364 19.0399 5.36253C19.0399 5.43697 19.0399 5.51142 19.1143 5.58587C19.1888 5.66031 19.1888 5.73476 19.3377 5.73476C19.4121 5.8092 19.4866 5.8092 19.6355 5.8092C19.7099 5.8092 19.8588 5.88365 20.0077 5.88365L20.5288 5.95809C21.1244 6.03254 21.571 6.18143 21.8688 6.47921C22.1666 6.70254 22.3899 7.07477 22.3899 7.52144C22.3899 7.74477 22.3155 8.04255 22.241 8.19144C22.1666 8.41478 21.9433 8.56367 21.7944 8.71256C21.571 8.86145 21.3477 9.01034 21.0499 9.08479C20.7521 9.15923 20.3799 9.23368 20.0077 9.23368C19.8588 9.23368 19.7099 9.23368 19.561 9.23368C19.4121 9.23368 19.1888 9.15923 18.9655 9.15923C18.7421 9.08479 18.5188 9.01034 18.3699 8.9359C18.1466 8.86145 17.9232 8.71256 17.7743 8.56367L18.2954 7.67033C18.3699 7.74477 18.5188 7.81922 18.5932 7.89366C18.7421 7.96811 18.8166 8.04255 18.9655 8.04255C19.1143 8.117 19.2632 8.117 19.4121 8.19144C19.561 8.19144 19.7844 8.26589 20.0077 8.26589C20.3799 8.26589 20.6777 8.19144 20.901 8.117C21.1244 7.96811 21.1988 7.81922 21.1988 7.67033C21.1988 7.52144 21.1244 7.37255 20.9755 7.2981C20.8266 7.22366 20.6032 7.14921 20.3055 7.07477L19.7844 7.00032C19.1888 6.92588 18.7421 6.77699 18.4443 6.47921C18.1466 6.18143 17.9977 5.88365 17.9977 5.43698C17.9977 5.13919 18.0721 4.91586 18.1466 4.69252C18.221 4.46919 18.3699 4.3203 18.5932 4.17141C18.8166 4.02252 19.0399 3.94807 19.2632 3.79918C19.561 3.72474 19.8588 3.65029 20.1566 3.65029C20.6032 3.65029 20.9755 3.72474 21.3477 3.79918C21.7199 3.87363 22.0177 4.02252 22.3155 4.24585L21.7199 5.21364ZM27.2289 4.91586H25.2188V7.22366C25.2188 7.37255 25.2188 7.52144 25.2933 7.67033C25.3677 7.81922 25.3677 7.89366 25.4422 7.96811C25.5166 8.04255 25.5911 8.117 25.74 8.117C25.8144 8.117 25.9633 8.19144 26.0377 8.19144C26.1866 8.19144 26.41 8.19144 26.5589 8.117C26.7822 8.04255 26.9311 7.96811 27.08 7.89366L27.5266 8.78701C27.3033 8.9359 27.08 9.08479 26.7822 9.15923C26.4844 9.23368 26.1866 9.30812 25.8889 9.30812C25.2933 9.30812 24.8466 9.15923 24.4744 8.78701C24.1022 8.41478 23.9533 7.89366 23.9533 7.22366V4.84141H22.911V3.79918H23.9533V2.16139H25.1444V3.79918H27.1544V4.91586H27.2289ZM30.8022 3.72474C31.1745 3.72474 31.5467 3.79918 31.8445 3.94807C32.1422 4.09696 32.44 4.24585 32.6634 4.54363C32.8867 4.76697 33.0356 5.06475 33.1845 5.43698C33.3334 5.8092 33.4078 6.18143 33.4078 6.55365C33.4078 6.6281 33.4078 6.70254 33.4078 6.77699C33.4078 6.85143 33.4078 6.92588 33.4078 7.00032H29.4622C29.4622 7.22366 29.5367 7.44699 29.6856 7.59588C29.76 7.74477 29.9089 7.89366 30.0578 8.04255C30.2067 8.117 30.3556 8.26589 30.5044 8.26589C30.6533 8.34033 30.8767 8.34033 31.0256 8.34033C31.3233 8.34033 31.5467 8.26589 31.8445 8.19144C32.1422 8.117 32.3656 7.96811 32.5889 7.74477L33.1845 8.56367C32.8867 8.86145 32.5145 9.01034 32.1422 9.15923C31.77 9.23368 31.3978 9.30812 30.9511 9.30812C30.5789 9.30812 30.2067 9.23368 29.8344 9.08479C29.5367 8.9359 29.2389 8.78701 28.9411 8.48922C28.7178 8.26589 28.4944 7.96811 28.3455 7.59588C28.1967 7.22366 28.1222 6.85143 28.1222 6.47921C28.1222 6.03254 28.1967 5.66031 28.3455 5.36253C28.4944 4.9903 28.6433 4.69252 28.8667 4.46919C29.09 4.24585 29.3878 4.02252 29.6856 3.87363C30.0578 3.79918 30.43 3.72474 30.8022 3.72474ZM30.8022 4.76697C30.5789 4.76697 30.43 4.76697 30.2811 4.84141C30.1322 4.91586 29.9833 4.9903 29.8344 5.13919C29.6856 5.28808 29.6111 5.36253 29.5367 5.58587C29.4622 5.73476 29.3878 5.95809 29.3878 6.10698H32.1422C32.0678 5.66031 31.9189 5.36253 31.6956 5.13919C31.4722 4.84141 31.1745 4.76697 30.8022 4.76697ZM37.3534 3.72474C37.5023 3.72474 37.7256 3.72474 37.8001 3.72474C37.949 3.72474 38.0979 3.79918 38.2467 3.87363L37.949 4.9903C37.8001 4.91586 37.6512 4.91586 37.5023 4.84141C37.3534 4.84141 37.2045 4.76697 37.0556 4.76697C36.9067 4.76697 36.6834 4.76697 36.5345 4.84141C36.3856 4.91586 36.2367 4.9903 36.1623 5.13919C36.0878 5.28808 35.9389 5.43698 35.8645 5.58587C35.7901 5.73476 35.7901 5.95809 35.7901 6.18143V9.08479H34.5989V3.72474H35.7156V4.3203C35.8645 4.09696 36.0878 3.87363 36.3856 3.72474C36.7578 3.79918 37.0556 3.72474 37.3534 3.72474ZM41.3734 3.72474C41.7457 3.72474 42.1179 3.79918 42.4901 3.94807C42.8623 4.09696 43.1601 4.3203 43.3835 4.61808L42.639 5.43698C42.4157 5.28808 42.2668 5.13919 42.0434 4.9903C41.8201 4.91586 41.5968 4.84141 41.3734 4.84141C41.1501 4.84141 40.9268 4.91586 40.7779 4.9903C40.5545 5.06475 40.4057 5.21364 40.2568 5.36253C40.1079 5.51142 40.0334 5.66031 39.959 5.88365C39.8845 6.10698 39.8101 6.33032 39.8101 6.55365C39.8101 6.77699 39.8845 7.00032 39.959 7.22366C40.0334 7.44699 40.1823 7.59588 40.2568 7.74477C40.4057 7.89366 40.5545 8.04255 40.7779 8.117C41.0012 8.19144 41.1501 8.26589 41.3734 8.26589C41.5968 8.26589 41.8946 8.19144 42.1179 8.117C42.3412 8.04255 42.5646 7.89366 42.7134 7.74477L43.4579 8.56367C43.2346 8.86145 42.9368 9.08479 42.5646 9.23368C42.1923 9.38257 41.8201 9.45701 41.4479 9.45701C41.0012 9.45701 40.629 9.38257 40.3312 9.23368C39.959 9.08479 39.6612 8.86145 39.4379 8.63811C39.2145 8.41478 38.9912 8.117 38.8423 7.74477C38.6934 7.37255 38.619 7.00032 38.619 6.6281C38.619 6.25587 38.6934 5.88365 38.8423 5.51142C38.9912 5.13919 39.1401 4.84141 39.4379 4.61808C39.6612 4.39474 39.959 4.17141 40.3312 4.02252C40.5545 3.79918 40.9268 3.72474 41.3734 3.72474ZM49.5624 9.23368H48.3713V8.56367C48.2224 8.78701 47.9246 9.01034 47.7013 9.15923C47.4035 9.30812 47.1057 9.38257 46.7335 9.38257C46.3613 9.38257 45.989 9.30812 45.6913 9.15923C45.3935 9.01034 45.0957 8.86145 44.8724 8.56367C44.649 8.34033 44.4257 8.04255 44.2768 7.67033C44.1279 7.2981 44.0535 6.92588 44.0535 6.55365C44.0535 6.18143 44.1279 5.73476 44.2768 5.43698C44.4257 5.06475 44.5746 4.76697 44.8724 4.54363C45.0957 4.3203 45.3935 4.09696 45.6913 3.94807C45.989 3.79918 46.3613 3.72474 46.7335 3.72474C47.1057 3.72474 47.4779 3.79918 47.7013 3.94807C47.9991 4.09696 48.2224 4.24585 48.3713 4.54363V3.87363H49.5624V9.23368ZM46.8824 4.84141C46.659 4.84141 46.4357 4.91586 46.2124 4.9903C45.989 5.06475 45.8401 5.21364 45.6913 5.36253C45.5424 5.51142 45.4679 5.66031 45.3935 5.88365C45.319 6.10698 45.319 6.33032 45.319 6.55365C45.319 6.77699 45.3935 7.00032 45.3935 7.22366C45.4679 7.44699 45.5424 7.59588 45.6913 7.74477C45.8401 7.89366 45.989 8.04255 46.2124 8.117C46.4357 8.19144 46.659 8.26589 46.8824 8.26589C47.1057 8.26589 47.329 8.19144 47.5524 8.117C47.7757 8.04255 47.9246 7.89366 48.0735 7.74477C48.2224 7.59588 48.2968 7.44699 48.3713 7.22366C48.4457 7.00032 48.5202 6.77699 48.5202 6.55365C48.5202 6.33032 48.4457 6.10698 48.3713 5.88365C48.2968 5.66031 48.1479 5.51142 48.0735 5.36253C47.9246 5.21364 47.7757 5.06475 47.5524 4.9903C47.329 4.84141 47.1057 4.84141 46.8824 4.84141ZM53.9547 3.72474C54.1036 3.72474 54.3269 3.72474 54.4013 3.72474C54.5502 3.72474 54.6991 3.79918 54.848 3.87363L54.5502 4.9903C54.4013 4.91586 54.2524 4.91586 54.1036 4.84141C53.9547 4.84141 53.8058 4.76697 53.6569 4.76697C53.508 4.76697 53.2847 4.76697 53.1358 4.84141C52.9869 4.91586 52.838 4.9903 52.7635 5.13919C52.6891 5.28808 52.5402 5.43698 52.4658 5.58587C52.3913 5.73476 52.3913 5.95809 52.3913 6.18143V9.08479H51.2002V3.72474H52.3169V4.3203C52.4658 4.09696 52.6891 3.87363 52.9869 3.72474C53.3591 3.79918 53.6569 3.72474 53.9547 3.72474ZM57.8258 3.72474C58.198 3.72474 58.5703 3.79918 58.7936 3.94807C59.0914 4.09696 59.3147 4.24585 59.4636 4.54363V1.1936H60.6547V9.23368H59.4636V8.56367C59.3147 8.78701 59.0169 9.01034 58.7936 9.15923C58.4958 9.30812 58.198 9.38257 57.8258 9.38257C57.4536 9.38257 57.0814 9.30812 56.7836 9.15923C56.4858 9.01034 56.188 8.86145 55.9647 8.56367C55.7413 8.34033 55.518 8.04255 55.3691 7.67033C55.2202 7.2981 55.1458 6.92588 55.1458 6.55365C55.1458 6.18143 55.2202 5.73476 55.3691 5.43698C55.518 5.06475 55.6669 4.76697 55.9647 4.54363C56.188 4.3203 56.4858 4.09696 56.7836 3.94807C57.0814 3.79918 57.4536 3.72474 57.8258 3.72474ZM57.9747 4.84141C57.7514 4.84141 57.528 4.91586 57.3047 4.9903C57.0814 5.06475 56.9325 5.21364 56.7836 5.36253C56.6347 5.51142 56.5602 5.66031 56.4858 5.88365C56.3369 6.10698 56.3369 6.33032 56.3369 6.55365C56.3369 6.77699 56.4114 7.00032 56.4114 7.22366C56.4858 7.44699 56.5602 7.59588 56.7091 7.74477C56.858 7.89366 57.0069 8.04255 57.2302 8.117C57.4536 8.19144 57.6769 8.26589 57.9003 8.26589C58.1236 8.26589 58.3469 8.19144 58.5703 8.117C58.7936 8.04255 58.9425 7.89366 59.0914 7.74477C59.2403 7.59588 59.3147 7.44699 59.3892 7.22366C59.4636 7.00032 59.538 6.77699 59.538 6.55365C59.538 6.33032 59.4636 6.10698 59.3892 5.88365C59.3147 5.66031 59.1658 5.51142 59.0914 5.36253C58.9425 5.21364 58.7936 5.06475 58.5703 4.9903C58.4214 4.84141 58.198 4.84141 57.9747 4.84141Z" fill="#E41522"/>
</svg>
